Coordinates
version=1
nRows=5
nColumns=114
inDegrees=yes

Units are S.I. units (second, meters, Newtons, ...)
If the header above contains a line with 'inDegrees', this indicates whether rotational values are in degrees (yes) or radians (no).

endheader 
time	pelvis_tilt	pelvis_list	pelvis_rotation	pelvis_tx	pelvis_ty	pelvis_tz	hip_flexion_l	hip_adduction_l	hip_rotation_l	hip_flexion_r	hip_adduction_r	hip_rotation_r	knee_angle_l	knee_angle_r	ankle_angle_l	ankle_angle_r	subtalar_angle_l	subtalar_angle_r	mtp_angle_l	mtp_angle_r	lumbar_extension	lumbar_bending	lumbar_rotation	arm_flex_l	arm_add_l	arm_rot_l	arm_flex_r	arm_add_r	arm_rot_r	elbow_flex_l	elbow_flex_r	pro_sup_l	pro_sup_r	addbrev_l/activation	addlong_l/activation	addmagDist_l/activation	addmagIsch_l/activation	addmagMid_l/activation	addmagProx_l/activation	bflh_l/activation	bfsh_l/activation	edl_l/activation	ehl_l/activation	fdl_l/activation	fhl_l/activation	gaslat_l/activation	gasmed_l/activation	glmax1_l/activation	glmax2_l/activation	glmax3_l/activation	glmed1_l/activation	glmed2_l/activation	glmed3_l/activation	glmin1_l/activation	glmin2_l/activation	glmin3_l/activation	grac_l/activation	iliacus_l/activation	perbrev_l/activation	perlong_l/activation	piri_l/activation	psoas_l/activation	recfem_l/activation	sart_l/activation	semimem_l/activation	semiten_l/activation	soleus_l/activation	tfl_l/activation	tibant_l/activation	tibpost_l/activation	vasint_l/activation	vaslat_l/activation	vasmed_l/activation	addbrev_r/activation	addlong_r/activation	addmagDist_r/activation	addmagIsch_r/activation	addmagMid_r/activation	addmagProx_r/activation	bflh_r/activation	bfsh_r/activation	edl_r/activation	ehl_r/activation	fdl_r/activation	fhl_r/activation	gaslat_r/activation	gasmed_r/activation	glmax1_r/activation	glmax2_r/activation	glmax3_r/activation	glmed1_r/activation	glmed2_r/activation	glmed3_r/activation	glmin1_r/activation	glmin2_r/activation	glmin3_r/activation	grac_r/activation	iliacus_r/activation	perbrev_r/activation	perlong_r/activation	piri_r/activation	psoas_r/activation	recfem_r/activation	sart_r/activation	semimem_r/activation	semiten_r/activation	soleus_r/activation	tfl_r/activation	tibant_r/activation	tibpost_r/activation	vasint_r/activation	vaslat_r/activation	vasmed_r/activation	
          1.15000000	         -2.93316477	          3.60641030	          2.62430870	          1.52344052	          0.95065428	         -0.22942371	          6.61152552	          1.72309026	         -3.24833889	          4.86978173	         -0.83328260	        -15.16475274	         41.07510118	          1.37376810	         -2.41966563	          2.49348431	        -20.77243284	          6.39553879	         -5.88376931	        -10.11979073	         -2.44941567	         -1.27628751	         -1.44730512	         -2.04117439	         -7.43692857	         14.72442749	          3.33803488	         -8.41369271	         22.66406131	         19.01995422	         24.57945337	         70.95074823	         76.06546263	          0.29894820	          0.39703352	          0.13259808	          0.10015290	          0.19729224	          0.25781762	          0.08956253	          0.30393083	          0.43229235	          0.30806877	          0.12378422	          0.06665609	          0.04219598	          0.02866013	          0.10425113	          0.05941008	          0.06298582	          0.21743252	          0.17635644	          0.15641528	          0.27359204	          0.24376639	          0.24753089	          0.28032369	          0.40244286	          0.38253852	          0.43121804	          0.24617852	          0.41908133	          0.31829947	          0.34594895	          0.08383640	          0.13645692	          0.01372934	          0.32964877	          0.45209315	          0.02489009	          0.08590927	          0.03808307	          0.06923847	          0.07664934	          0.04318297	          0.09020720	          0.10480622	          0.08672850	          0.10929125	          0.10397900	          0.33561973	          0.23328011	          0.28403235	          0.29119732	          0.32930186	          0.27010758	          0.14211485	          0.15832641	          0.13446930	          0.06494567	          0.55427863	          0.34455599	          0.25724911	          0.40265666	          0.36427924	          0.29933979	          0.15367890	          0.39341112	          0.07146671	          0.02262735	          0.22737086	          0.29984840	          0.14632424	          0.35392546	          0.13395655	          0.16441910	          0.03989161	          0.39419725	          0.57601070	          0.48306440	          0.09101109	          0.03702792	          0.07173732	
          1.16000000	         -2.97676885	          3.78464176	          2.68795568	          1.52746858	          0.95108196	         -0.22877972	          7.53504335	          1.83432573	         -3.47477133	          4.52642457	         -1.01250271	        -15.16546824	         39.97743037	          1.24913883	         -1.45884011	          2.87290906	        -21.96601430	          7.05757966	         -4.84700121	        -10.11869120	         -2.41808495	         -1.46987027	         -1.26253874	         -1.87446322	         -7.52557614	         14.72404809	          3.40058244	         -8.46250087	         22.62411645	         19.19618650	         24.61712897	         70.90777991	         75.91216287	          0.29172948	          0.39738977	          0.13266233	          0.09973936	          0.19560050	          0.25672710	          0.11003572	          0.30032679	          0.42372999	          0.31383299	          0.14036268	          0.06714315	          0.03742278	          0.02512357	          0.10839458	          0.06200627	          0.06542028	          0.20652937	          0.18138722	          0.16566003	          0.26688375	          0.23625972	          0.25378703	          0.27479900	          0.40909307	          0.36090299	          0.39790670	          0.27583960	          0.42573676	          0.33843173	          0.34575489	          0.07008828	          0.12571087	          0.01306347	          0.32683620	          0.49884236	          0.03129410	          0.09480090	          0.04488285	          0.07765956	          0.08542811	          0.05318819	          0.09358778	          0.10676391	          0.09210084	          0.11780435	          0.10734927	          0.33501751	          0.21303685	          0.28170147	          0.30053547	          0.35084097	          0.28351247	          0.14136028	          0.15508608	          0.12877047	          0.06692150	          0.53098340	          0.33209345	          0.25052768	          0.38924847	          0.35562541	          0.29596935	          0.16075899	          0.38686006	          0.06236451	          0.02098499	          0.22340982	          0.30569794	          0.14016166	          0.35103443	          0.13573230	          0.16103929	          0.04179248	          0.38437804	          0.58691031	          0.51421147	          0.09173777	          0.03714542	          0.07269641	
          1.17000000	         -3.00527949	          3.92550811	          2.74177802	          1.53149290	          0.95142700	         -0.22824731	          8.33110192	          1.92674216	         -3.83481160	          4.18960584	         -1.16206489	        -15.20988953	         38.56131464	          1.15972713	         -0.55363280	          3.22080548	        -22.80746803	          7.72711679	         -3.88581475	        -10.14730209	         -2.39267116	         -1.60836876	         -1.08084655	         -1.69562192	         -7.59161469	         14.73223605	          3.46318203	         -8.52499109	         22.58757130	         19.38821891	         24.66020644	         70.86600262	         75.75562621	          0.29460154	          0.39197407	          0.13017021	          0.09575455	          0.19653776	          0.26580868	          0.09707679	          0.29521503	          0.42117979	          0.31785478	          0.15247887	          0.06301102	          0.04539850	          0.02206940	          0.11513157	          0.06295291	          0.06809537	          0.17996294	          0.18071507	          0.18323065	          0.25256635	          0.22001076	          0.25907081	          0.27403689	          0.40279942	          0.35019048	          0.37536867	          0.28660727	          0.43844885	          0.35271912	          0.34900238	          0.09148138	          0.11334042	          0.01264996	          0.32844112	          0.54106603	          0.02886916	          0.10906482	          0.05589247	          0.08967246	          0.09653207	          0.06433100	          0.09913757	          0.11056154	          0.09938267	          0.12622061	          0.11341522	          0.32888098	          0.18649191	          0.27952835	          0.31097338	          0.37631555	          0.29860568	          0.14011274	          0.15329019	          0.12638880	          0.07144152	          0.50772857	          0.31512002	          0.23586010	          0.38083789	          0.34415420	          0.28433453	          0.16832942	          0.38873033	          0.05417100	          0.01919297	          0.21826410	          0.31287197	          0.13567093	          0.34759233	          0.13791164	          0.17490649	          0.04597340	          0.37464680	          0.60774544	          0.54911596	          0.09317378	          0.03766777	          0.07434501	
          1.18000000	         -3.01591980	          4.02470217	          2.78355554	          1.53553253	          0.95169955	         -0.22782224	          8.98821789	          2.00310743	         -4.32191139	          3.85110344	         -1.27505298	        -15.28759965	         36.86935056	          1.09455458	          0.27913197	          3.52393209	        -23.27172755	          8.40085415	         -3.00440574	        -10.22121185	         -2.37385931	         -1.68764127	         -0.90081171	         -1.51109866	         -7.63312624	         14.74769186	          3.52509633	         -8.60206704	         22.55811386	         19.59496831	         24.70970582	         70.82415493	         75.59372006	          0.29069567	          0.39339161	          0.12616968	          0.09555133	          0.19163707	          0.26372449	          0.11519201	          0.29559243	          0.40157889	          0.31568622	          0.16987631	          0.09000848	          0.04123958	          0.03128158	          0.11596066	          0.06355895	          0.06757726	          0.17477289	          0.18074267	          0.18248774	          0.24878330	          0.21690202	          0.25961242	          0.27105900	          0.41593489	          0.31952702	          0.33332689	          0.30891598	          0.43794279	          0.37714998	          0.34692985	          0.07698271	          0.10561207	          0.01416797	          0.33224316	          0.52925606	          0.03991498	          0.11687212	          0.06266658	          0.09911945	          0.10996207	          0.08823385	          0.10536424	          0.11529718	          0.10839465	          0.13575478	          0.11622776	          0.33056139	          0.16492232	          0.27758518	          0.31709041	          0.39283756	          0.31018601	          0.14082998	          0.15126701	          0.12184885	          0.07320228	          0.48778907	          0.29516882	          0.22293789	          0.37231398	          0.33478659	          0.27438795	          0.17704659	          0.38035860	          0.04673550	          0.01781676	          0.20938433	          0.30886473	          0.12940993	          0.33871194	          0.13936533	          0.17196424	          0.05198952	          0.36765321	          0.62016448	          0.56818487	          0.09457332	          0.03954026	          0.07623437	
          1.19000000	         -3.00663338	          4.07803838	          2.81138944	          1.53959201	          0.95191112	         -0.22748587	          9.50248668	          2.06412171	         -4.92472411	          3.50345782	         -1.34305733	        -15.38410642	         34.94705207	          1.04046621	          1.03232482	          3.77058705	        -23.34674933	          9.06659157	         -2.21735399	        -10.34749616	         -2.36455200	         -1.70691300	         -0.72022264	         -1.32674292	         -7.64918161	         14.76901778	          3.58741603	         -8.69355203	         22.54023222	         19.81470679	         24.76626205	         70.78150163	         75.42586262	          0.28428581	          0.38364686	          0.12098742	          0.09150417	          0.18671271	          0.26838846	          0.09954769	          0.28807112	          0.39186431	          0.31808739	          0.18132837	          0.10640558	          0.05553336	          0.02697555	          0.11907578	          0.06434104	          0.06948132	          0.15489170	          0.18630874	          0.20627950	          0.23866956	          0.20438607	          0.26651487	          0.26071584	          0.41573444	          0.30630192	          0.31345056	          0.30853797	          0.46413351	          0.37890047	          0.35723398	          0.10332397	          0.09544298	          0.01304551	          0.33773895	          0.57489534	          0.06090734	          0.12837727	          0.07318156	          0.11004673	          0.12706240	          0.11012345	          0.11202407	          0.12058086	          0.11836274	          0.14502986	          0.11812433	          0.32057909	          0.14304169	          0.27550566	          0.32006400	          0.40347402	          0.31768650	          0.14145542	          0.14723625	          0.11821530	          0.07751707	          0.46742263	          0.28281232	          0.20608562	          0.36349397	          0.32243905	          0.26739044	          0.18619982	          0.37933770	          0.04003711	          0.01698284	          0.20428732	          0.31476423	          0.13023521	          0.33236857	          0.13111561	          0.19118976	          0.05813425	          0.36330682	          0.62894653	          0.57709937	          0.09654749	          0.04134377	          0.07807634	
